<?xml version="1.0" encoding="utf-8"?>
<!-- Generator: Adobe Illustrator 16.0.0, SVG Export Plug-In . SVG Version: 6.00 Build 0)  -->
<!DOCTYPE svg PUBLIC "-//W3C//DTD SVG 1.1//EN" "http://www.w3.org/Graphics/SVG/1.1/DTD/svg11.dtd">
<svg version="1.1" id="Layer_1" xmlns="http://www.w3.org/2000/svg" xmlns:xlink="http://www.w3.org/1999/xlink" x="0px" y="0px"
	 width="1090.073px" height="1058.638px" viewBox="0 0 1090.073 1058.638" enable-background="new 0 0 1090.073 1058.638"
	 xml:space="preserve">
<g>
	<g>
		<path fill="none" stroke="#FFFFFF" stroke-width="30" stroke-miterlimit="10" d="M1036.072,167.808
			c2.373,26.28-1.475,61.032-6.337,81.479c-4.863-33.863-30.352-134.812-52.509-163.863s-60.474-64.787-94.153-69.71
			c-33.679-4.923-52.733,16.636-60.656,33.497s-20.02,68.445-21.728,75.142c-1.708,6.697-10.885,44.743-51.604,11.769
			c0,0-143.399-101.688-359.412-47.077C173.661,143.656,92.949,311.832,67.38,367.883c-25.569,56.051-87.332,196.025-26.254,338.589
			c61.078,142.564,77.913,163.684,186.496,248.058c108.583,84.374,203.667,93.301,332.252,87.816s192.381-52.479,252.584-96.869
			s140.832-190.122,154.81-219.087c13.977-28.966,5.527-36.858-14.485-14.485c-20.013,22.373-45.327,60.281-58.846,73.331
			c-13.519,13.05-59.503,70.707-114.07,86.005c-54.567,15.298-120.278,28.148-202.792-5.432
			c-82.513-33.58-133.664-73.787-171.105-117.691c-37.441-43.905-45.449-69.219-30.781-124.934
			c14.668-55.715,32.152-97.625,25.349-128.556s-27.384-50.037-59.751-57.94s-92.666-13.099-157.526,31.686
			c46.631-49.288,142.386-82.808,219.087-19.012c27.258,32.762,22.842,74.084,9.053,107.733
			c25.96-29.39,99.713-106.432,152.999-135.798c53.287-29.366,108.771-60.53,149.378-76.952
			c-32.105,22.371-123.038,80.597-150.283,107.733c-27.245,27.136-19.945,36.307-9.053,51.603
			c10.892,15.296,67.419,91.617,104.111,114.07c36.692,22.454,62.465,37.302,73.331,43.456c-15.31,1.304-27.717-1.5-45.266-5.432
			c13.475,16.434,54.402,35.105,75.142,26.254c20.739-8.851,6.592-32.933-8.148-47.077
			c-14.739-14.144-115.24-127.238-129.46-137.609c21.65-13.28,52.884-41.239,76.047-46.171
			c23.163-4.932,143.841-9.424,182.875-8.148c39.033,1.276,127.544,8.942,144.852,9.958c17.307,1.016,37.61,1.879,43.455-40.739
			C1077.225,369.625,1082.174,244.329,1036.072,167.808z M995.333,266.487c-2.777,10.099-17.318,44.468-46.171,38.929
			c-28.854-5.539-23.151-38.137-21.728-50.698c1.423-12.561-1.811-22.633-1.811-22.633c27.265,18.43,44.818,23.075,83.29,15.39
			C1001.438,254.434,998.11,256.389,995.333,266.487z M959.838,250.486c-7.75,0-14.032,6.283-14.032,14.033
			s6.282,14.032,14.032,14.032s14.033-6.282,14.033-14.032S967.588,250.486,959.838,250.486z"/>
	</g>
</g>
<g>
	<g>
		<path fill-rule="evenodd" clip-rule="evenodd" fill="#1D6F75" d="M1036.072,167.808c2.373,26.28-1.475,61.032-6.337,81.479
			c-4.863-33.863-30.352-134.812-52.509-163.863s-60.474-64.787-94.153-69.71c-33.679-4.923-52.733,16.636-60.656,33.497
			s-20.02,68.445-21.728,75.142c-1.708,6.697-10.885,44.743-51.604,11.769c0,0-143.399-101.688-359.412-47.077
			C173.661,143.656,92.949,311.832,67.38,367.883c-25.569,56.051-87.332,196.025-26.254,338.589
			c61.078,142.564,77.913,163.684,186.496,248.058c108.583,84.374,203.667,93.301,332.252,87.816s192.381-52.479,252.584-96.869
			s140.832-190.122,154.81-219.087c13.977-28.966,5.527-36.858-14.485-14.485c-20.013,22.373-45.327,60.281-58.846,73.331
			c-13.519,13.05-59.503,70.707-114.07,86.005c-54.567,15.298-120.278,28.148-202.792-5.432
			c-82.513-33.58-133.664-73.787-171.105-117.691c-37.441-43.905-45.449-69.219-30.781-124.934
			c14.668-55.715,32.152-97.625,25.349-128.556s-27.384-50.037-59.751-57.94s-92.666-13.099-157.526,31.686
			c46.631-49.288,142.386-82.808,219.087-19.012c27.258,32.762,22.842,74.084,9.053,107.733
			c25.96-29.39,99.713-106.432,152.999-135.798c53.287-29.366,108.771-60.53,149.378-76.952
			c-32.105,22.371-123.038,80.597-150.283,107.733c-27.245,27.136-19.945,36.307-9.053,51.603
			c10.892,15.296,67.419,91.617,104.111,114.07c36.692,22.454,62.465,37.302,73.331,43.456c-15.31,1.304-27.717-1.5-45.266-5.432
			c13.475,16.434,54.402,35.105,75.142,26.254c20.739-8.851,6.592-32.933-8.148-47.077
			c-14.739-14.144-115.24-127.238-129.46-137.609c21.65-13.28,52.884-41.239,76.047-46.171
			c23.163-4.932,143.841-9.424,182.875-8.148c39.033,1.276,127.544,8.942,144.852,9.958c17.307,1.016,37.61,1.879,43.455-40.739
			C1077.225,369.625,1082.174,244.329,1036.072,167.808z M995.333,266.487c-2.777,10.099-17.318,44.468-46.171,38.929
			c-28.854-5.539-23.151-38.137-21.728-50.698c1.423-12.561-1.811-22.633-1.811-22.633c27.265,18.43,44.818,23.075,83.29,15.39
			C1001.438,254.434,998.11,256.389,995.333,266.487z M959.838,250.486c-7.75,0-14.032,6.283-14.032,14.033
			s6.282,14.032,14.032,14.032s14.033-6.282,14.033-14.032S967.588,250.486,959.838,250.486z"/>
	</g>
</g>
<g>
	<g>
		<path fill-rule="evenodd" clip-rule="evenodd" d="M513.703,357.925c-60.556-1.171-141.097,29.429-213.975,56.556
			c34.168-1.718,70.106,7.837,102.62,34.881c27.258,32.762,22.842,74.084,9.053,107.733c25.96-29.39,99.713-106.432,152.999-135.798
			c18.738-10.326,37.748-20.875,56.287-30.927C472.502,268.497,180.918,261.466,128.284,263.085
			c-8.959,12.02-16.871,23.76-23.842,34.923C324.29,283.027,447.127,328.323,513.703,357.925z M728.656,447.967
			c11.608-1.652,21.335-1.321,21.335-1.321c13.782-121.161-12.604-262.398-19.083-321.512c-7.829-4.301-18.092-9.505-30.605-14.94
			C729.859,245.833,729.871,329.333,728.656,447.967z M661.27,419.486c-4.822-7.35-15.408-15.313-25.125-22.601
			c-29.919,20.6-59.128,41.725-72.649,55.193c-27.245,27.136-19.945,36.307-9.053,51.603
			c10.892,15.296,67.419,91.617,104.111,114.07c36.692,22.454,62.465,37.302,73.331,43.456c-15.31,1.304-27.717-1.5-45.266-5.432
			c13.475,16.434,54.402,35.105,75.142,26.254c20.739-8.851,6.592-32.933-8.148-47.077
			c-14.739-14.144-115.24-127.238-129.46-137.609c21.65-13.28,52.884-41.239,76.047-46.171c8.097-2.025,15.379-2.405,26.254-2.716
			c-7.113-30.155-28.5-54.635-46.315-81.358c-7.069,4.74-14.617,9.805-22.366,15.044
			C661.011,397.123,661.638,409.831,661.27,419.486z M642.256,378.806c6.64-3.512,13.176-6.919,19.572-10.185
			c-23.888-38.06-172.911-214.412-256.721-283.244c-5.102,1.135-10.247,2.356-15.434,3.667c-5.744,1.452-11.393,2.985-16.946,4.593
			C422.932,140.2,582.74,286.49,642.256,378.806z M183.261,468.374C137.51,499.551,55.192,559.548,15.919,602.063
			c0.846,11.632,2.299,23.43,4.458,35.344c144.136-143.333,226.461-177.5,295.291-205.033
			C281.714,428.913,233.877,433.425,183.261,468.374z M521.851,840.46c73.271,58.492,195.994,103.267,261.179,126.347
			c10.069-7.056,19.795-14.226,29.429-21.33c-85.024-21.864-169.793-48.086-235.383-79.668
			C562.948,860.505,549.164,854.083,521.851,840.46z M339.881,662.112c30.77,43.324,35.723,57.663,66.088,86.005
			c-37.441-43.905-45.449-69.219-30.781-124.934c14.668-55.715,32.152-97.625,25.349-128.556
			c-5.394-24.526-19.452-41.617-41.178-51.584C228.585,546.696,174.304,737.199,155.679,895.107
			c8.751,8.146,18.392,16.492,29.21,25.429c4.859-119.444,33.295-270.313,128.738-411.423
			c-24.806,190.902-0.956,318.248,147.229,533.247c9.31,0.571,18.757,0.934,28.369,1.121
			C400.557,918.774,325.756,789.405,339.881,662.112z M1036.072,167.808c2.373,26.28-1.475,61.032-6.337,81.479
			c-2.178-15.165-8.492-43.783-16.791-73.374c-9.717,29.557-19.593,53.995-30.557,75.04c7.77-0.292,16.427-1.459,26.526-3.477
			c-7.476,6.958-10.803,8.913-13.58,19.012c-2.36,8.583-13.218,34.699-34.141,38.943c-14.575,30.771-58.181,98.111-90.571,137.385
			c4.729,0.025,8.924,0.093,12.452,0.209c6.825,0.223,15.163,0.642,24.369,1.186c20.244-29.152,123.285-165.462,150.411-226.196
			C1052.337,200.046,1045.207,182.969,1036.072,167.808z"/>
	</g>
</g>
</svg>
